<?xml version="1.0" encoding="UTF-8"?>
<svg width="87px" height="60px" viewBox="0 0 87 60" version="1.1" xmlns="http://www.w3.org/2000/svg" xmlns:xlink="http://www.w3.org/1999/xlink">
    <!-- Generator: Sketch 52.3 (67297) - http://www.bohemiancoding.com/sketch -->
    <title>catraca fechada</title>
    <desc>Created with Sketch.</desc>
    <g id="Page-1" stroke="none" stroke-width="1" fill="none" fill-rule="evenodd">
        <g id="Mobile-Copy" transform="translate(-137.000000, -469.000000)" fill="#7EBB40">
            <g id="catraca-fechada" transform="translate(137.000000, 469.000000)">
                <path d="M86.5098507,27.0492 L84.5528358,27.0492 L84.5528358,1.7214 C84.5528358,0.7722 83.7844776,0 82.84,0 C81.8955224,0 81.1271642,0.7722 81.1271642,1.7214 L81.1271642,2.4588 L69.3826866,2.4588 C66.4143284,2.4588 64,4.8858 64,7.869 L64,44.754 C64,47.7372 66.4143284,50.1636 69.3826866,50.1636 L78.680597,50.1636 L78.680597,59.508 C78.680597,59.7798 78.8997015,60 79.1701493,60 L86.5104478,60 C86.7808955,60 87,59.7798 87,59.508 L87,27.5412 C86.999403,27.2694 86.7802985,27.0492 86.5098507,27.0492 Z M86.0208955,34.4262 L79.6591045,34.4262 L79.6591045,28.0326 L86.0208955,28.0326 L86.0208955,34.4262 Z M69.3826866,46.7214 C68.3032836,46.7214 67.4256716,45.8388 67.4256716,44.7546 L67.4256716,42.7872 L69.3826866,42.7872 C69.6531343,42.7872 69.8722388,42.567 69.8722388,42.2952 L69.8722388,39.8364 C69.8722388,39.5646 69.6531343,39.3444 69.3826866,39.3444 L67.4256716,39.3444 L67.4256716,13.2786 L69.3826866,13.2786 C69.6531343,13.2786 69.8722388,13.0584 69.8722388,12.7866 L69.8722388,10.3272 C69.8722388,10.0554 69.6531343,9.8358 69.3826866,9.8358 L67.4256716,9.8358 L67.4256716,7.8684 C67.4256716,6.7836 68.3038806,5.901 69.3826866,5.901 L81.1271642,5.901 L81.1271642,27.0486 L79.1695522,27.0486 C78.8991045,27.0486 78.68,27.2688 78.68,27.5406 L78.68,46.7208 L69.3826866,46.7208 L69.3826866,46.7214 Z M67.4256716,10.8198 L68.8937313,10.8198 L68.8937313,12.2952 L67.4256716,12.2952 L67.4256716,10.8198 Z M67.4256716,40.3278 L68.8937313,40.3278 L68.8937313,41.8032 L67.4256716,41.8032 L67.4256716,40.3278 Z M82.84,0.9834 C83.2447761,0.9834 83.5737313,1.3146 83.5737313,1.7208 L83.5737313,27.0486 L82.1056716,27.0486 L82.1056716,1.7214 C82.1056716,1.3146 82.4352239,0.9834 82.84,0.9834 Z M69.3826866,49.1802 C66.9546269,49.1802 64.9785075,47.1942 64.9785075,44.754 L64.9785075,7.869 C64.9785075,5.4288 66.9546269,3.4428 69.3826866,3.4428 L81.1271642,3.4428 L81.1271642,4.9182 L69.3826866,4.9182 C67.7635821,4.9182 66.4465672,6.2418 66.4465672,7.869 L66.4465672,10.3278 L66.4465672,12.7872 L66.4465672,39.8364 L66.4465672,42.2952 L66.4465672,44.7546 C66.4465672,46.3818 67.7635821,47.7054 69.3826866,47.7054 L78.680597,47.7054 L78.680597,49.1808 L69.3826866,49.1808 L69.3826866,49.1802 Z M79.6591045,59.0166 L79.6591045,35.4102 L86.0208955,35.4102 L86.0208955,59.0166 L79.6591045,59.0166 Z" id="Shape" fill-rule="nonzero"></path>
                <path d="M17.6167164,2.4588 L5.87223881,2.4588 L5.87223881,1.7214 C5.87223881,0.7722 5.1038806,0 4.15940299,0 C3.21492537,0 2.44656716,0.7722 2.44656716,1.7214 L2.44656716,27.0492 L0.489552239,27.0492 C0.219104478,27.0492 0,27.2694 0,27.5412 L0,59.508 C0,59.7798 0.219104478,60 0.489552239,60 L7.82985075,60 C8.10029851,60 8.31940299,59.7798 8.31940299,59.508 L8.31940299,50.1636 L17.6173134,50.1636 C20.5856716,50.1636 23,47.7372 23,44.754 L23,7.869 C22.999403,4.8858 20.5850746,2.4588 17.6167164,2.4588 Z M17.6167164,5.9016 C18.6961194,5.9016 19.5737313,6.7842 19.5737313,7.869 L19.5737313,9.8364 L17.6167164,9.8364 C17.3462687,9.8364 17.1271642,10.0566 17.1271642,10.3278 L17.1271642,12.7872 C17.1271642,13.059 17.3462687,13.2792 17.6167164,13.2792 L19.5737313,13.2792 L19.5737313,39.3444 L17.6167164,39.3444 C17.3462687,39.3444 17.1271642,39.5646 17.1271642,39.8364 L17.1271642,42.2952 C17.1271642,42.567 17.3462687,42.7872 17.6167164,42.7872 L19.5737313,42.7872 L19.5737313,44.7546 C19.5737313,45.8394 18.6955224,46.7214 17.6167164,46.7214 L8.31880597,46.7214 L8.31880597,27.5412 C8.31880597,27.2694 8.09970149,27.0492 7.82925373,27.0492 L5.87164179,27.0492 L5.87164179,5.9016 L17.6167164,5.9016 Z M19.5737313,41.8032 L18.1056716,41.8032 L18.1056716,40.3278 L19.5737313,40.3278 L19.5737313,41.8032 Z M19.5737313,12.2952 L18.1056716,12.2952 L18.1056716,10.8198 L19.5737313,10.8198 L19.5737313,12.2952 Z M3.42567164,1.7214 C3.42567164,1.3146 3.75462687,0.984 4.15940299,0.984 C4.5641791,0.984 4.89313433,1.3152 4.89313433,1.7214 L4.89313433,27.0492 L3.42507463,27.0492 L3.42507463,1.7214 L3.42567164,1.7214 Z M7.34029851,28.0326 L7.34029851,34.4262 L0.978507463,34.4262 L0.978507463,28.0326 L7.34029851,28.0326 Z M7.34029851,59.0166 L0.978507463,59.0166 L0.978507463,35.4102 L7.34029851,35.4102 L7.34029851,59.0166 Z M22.0208955,44.754 C22.0208955,47.1942 20.0447761,49.1802 17.6167164,49.1802 L8.31880597,49.1802 L8.31880597,47.7048 L17.6167164,47.7048 C19.2358209,47.7048 20.5528358,46.3812 20.5528358,44.754 L20.5528358,42.2946 L20.5528358,39.8358 L20.5528358,12.7872 L20.5528358,10.3278 L20.5528358,7.869 C20.5528358,6.2418 19.2358209,4.9182 17.6167164,4.9182 L5.87223881,4.9182 L5.87223881,3.4428 L17.6167164,3.4428 C20.0447761,3.4428 22.0208955,5.4288 22.0208955,7.869 L22.0208955,44.754 Z" id="Shape" fill-rule="nonzero"></path>
                <path d="M84.8319972,38.1680321 C84.608923,37.9449189 84.2471244,37.9449189 84.0240502,38.1680321 L82.1425584,40.0498518 L82.1425584,38.5717274 C82.1425584,38.2558829 81.8867201,38 81.5716277,38 C81.2558383,38 81,38.2558829 81,38.5717274 L81,41.4289698 C81,41.5035733 81.0146392,41.5774795 81.0439177,41.6472024 C81.1017776,41.7866481 81.2133147,41.8982046 81.3534333,41.9560746 C81.423144,41.9853582 81.4970373,42 81.5716277,42 L84.4283723,42 C84.7441617,42 85,41.7441171 85,41.4282726 C85,41.1124281 84.7441617,40.8572425 84.4283723,40.8572425 L82.9505054,40.8572425 L84.8319972,38.9754227 C85.0550715,38.7530068 85.0550715,38.3911452 84.8319972,38.1680321 Z" id="Path"></path>
            </g>
        </g>
    </g>
</svg>